<?xml version="1.0" encoding="UTF-8"?><svg width="250px" height="286px" viewBox="0 0 250 286" version="1.1" xmlns="http://www.w3.org/2000/svg" xmlns:xlink="http://www.w3.org/1999/xlink"><g stroke="#d2f0fe" stroke-width="10" fill="none" fill-rule="evenodd"><path d="M249.411,74.385 C249.409,74.141 249.395,73.897 249.363,73.653 C249.361,73.636 249.357,73.62 249.354,73.603 C249.323,73.385 249.278,73.167 249.223,72.951 C249.208,72.891 249.191,72.833 249.174,72.774 C249.123,72.598 249.064,72.424 248.996,72.252 C248.973,72.194 248.953,72.136 248.928,72.078 C248.835,71.861 248.732,71.647 248.611,71.437 C248.49,71.228 248.356,71.031 248.214,70.843 C248.176,70.793 248.136,70.745 248.096,70.696 C247.981,70.552 247.862,70.415 247.736,70.284 C247.692,70.238 247.648,70.193 247.603,70.148 C247.447,69.996 247.285,69.852 247.116,69.719 C247.099,69.705 247.083,69.69 247.065,69.676 C246.872,69.528 246.671,69.395 246.463,69.273 C246.446,69.263 246.431,69.25 246.414,69.24 L127.877,0.804 C127.861,0.795 127.844,0.789 127.828,0.78 C127.616,0.66 127.398,0.551 127.172,0.457 C127.156,0.451 127.14,0.446 127.125,0.44 C126.92,0.357 126.709,0.288 126.494,0.227 C126.436,0.211 126.377,0.196 126.318,0.182 C126.139,0.138 125.956,0.102 125.771,0.074 C125.712,0.065 125.653,0.054 125.593,0.047 C125.358,0.019 125.12,0 124.877,0 C124.634,0 124.396,0.019 124.161,0.047 C124.101,0.054 124.042,0.065 123.983,0.074 C123.798,0.102 123.615,0.137 123.436,0.182 C123.377,0.197 123.319,0.211 123.26,0.227 C123.045,0.287 122.834,0.357 122.629,0.44 C122.613,0.446 122.597,0.451 122.582,0.457 C122.355,0.551 122.137,0.66 121.926,0.78 C121.91,0.789 121.893,0.795 121.877,0.804 L3.339,69.242 C3.321,69.252 3.305,69.266 3.287,69.276 C3.078,69.399 2.875,69.533 2.681,69.682 C2.672,69.688 2.665,69.696 2.657,69.703 C2.478,69.842 2.309,69.994 2.145,70.154 C2.101,70.197 2.058,70.242 2.015,70.287 C1.89,70.418 1.77,70.555 1.655,70.699 C1.615,70.749 1.574,70.798 1.536,70.849 C1.402,71.029 1.275,71.216 1.159,71.415 C1.153,71.425 1.146,71.434 1.14,71.444 C1.138,71.447 1.136,71.45 1.134,71.453 C1.015,71.661 0.913,71.874 0.821,72.089 C0.799,72.141 0.78,72.195 0.76,72.247 C0.69,72.424 0.629,72.603 0.577,72.783 C0.561,72.84 0.545,72.896 0.53,72.954 C0.475,73.168 0.431,73.382 0.401,73.598 C0.398,73.618 0.393,73.638 0.391,73.659 C0.359,73.904 0.344,74.15 0.342,74.395 C0.342,74.41 0.339,74.425 0.339,74.44 L0.339,211.316 C0.339,211.334 0.342,211.351 0.343,211.369 C0.345,211.613 0.359,211.857 0.391,212.101 C0.393,212.118 0.397,212.134 0.4,212.151 C0.431,212.369 0.476,212.587 0.531,212.803 C0.546,212.863 0.563,212.921 0.58,212.98 C0.631,213.156 0.69,213.33 0.758,213.502 C0.781,213.56 0.801,213.618 0.826,213.676 C0.919,213.893 1.022,214.107 1.143,214.317 C1.147,214.324 1.152,214.33 1.156,214.337 C1.285,214.559 1.428,214.773 1.585,214.977 C1.674,215.094 1.775,215.197 1.872,215.306 C1.949,215.393 2.021,215.484 2.103,215.566 C2.227,215.69 2.362,215.8 2.495,215.911 C2.563,215.967 2.625,216.029 2.695,216.083 C2.846,216.199 3.007,216.299 3.168,216.399 C3.226,216.435 3.279,216.479 3.339,216.513 L3.373,216.533 C3.379,216.536 3.385,216.54 3.391,216.543 L86.878,264.745 C89.751,266.403 93.418,265.418 95.074,262.549 C96.73,259.68 95.748,256.01 92.878,254.353 L18.339,211.318 L42.422,197.414 L118.877,241.555 L118.877,279.756 C118.877,279.778 118.88,279.799 118.88,279.82 C118.881,279.949 118.89,280.078 118.9,280.207 C118.905,280.278 118.908,280.35 118.916,280.42 C118.929,280.538 118.949,280.655 118.97,280.773 C118.984,280.854 118.995,280.936 119.012,281.017 C119.033,281.114 119.061,281.211 119.087,281.308 C119.113,281.405 119.137,281.503 119.168,281.598 C119.193,281.676 119.224,281.753 119.253,281.83 C119.294,281.941 119.335,282.053 119.382,282.161 C119.411,282.227 119.445,282.291 119.476,282.357 C119.532,282.472 119.588,282.586 119.65,282.697 C119.661,282.716 119.669,282.737 119.68,282.756 C119.698,282.787 119.721,282.814 119.74,282.845 C119.841,283.013 119.95,283.175 120.067,283.332 C120.108,283.387 120.147,283.442 120.189,283.495 C120.332,283.674 120.483,283.847 120.645,284.009 C120.69,284.053 120.738,284.092 120.784,284.135 C120.91,284.253 121.041,284.366 121.177,284.473 C121.243,284.525 121.31,284.575 121.378,284.624 C121.518,284.725 121.662,284.818 121.81,284.907 C121.861,284.937 121.909,284.97 121.961,284.999 C122.166,285.113 122.378,285.216 122.597,285.306 C122.628,285.319 122.659,285.328 122.69,285.34 C122.879,285.414 123.073,285.478 123.27,285.533 C123.329,285.549 123.389,285.564 123.448,285.579 C123.622,285.622 123.799,285.656 123.979,285.683 C124.043,285.693 124.106,285.704 124.17,285.712 C124.388,285.738 124.608,285.753 124.832,285.755 C124.848,285.755 124.864,285.758 124.88,285.758 C124.911,285.758 124.943,285.753 124.974,285.752 C125.174,285.749 125.372,285.736 125.567,285.714 C125.646,285.705 125.725,285.69 125.804,285.678 C125.965,285.653 126.124,285.623 126.28,285.585 C126.354,285.567 126.428,285.549 126.502,285.528 C126.697,285.473 126.889,285.409 127.075,285.335 C127.106,285.323 127.138,285.314 127.169,285.301 C127.396,285.207 127.614,285.098 127.825,284.978 C127.841,284.969 127.858,284.963 127.874,284.954 L246.412,216.516 C248.268,215.444 249.412,213.463 249.412,211.32 L249.412,74.438 C249.415,74.421 249.412,74.403 249.411,74.385 L249.411,74.385 Z M48.422,180.089 L48.422,105.511 L72.536,119.352 L72.536,166.166 L48.422,180.089 L48.422,180.089 Z M12.339,84.801 L36.422,98.624 L36.422,187.018 L12.339,200.922 L12.339,84.801 L12.339,84.801 Z M118.877,132.116 L90.773,115.985 L118.877,99.76 L118.877,132.116 L118.877,132.116 Z M130.877,99.759 L159.218,116.122 L130.877,132.484 L130.877,99.759 L130.877,99.759 Z M171.218,109.193 L130.877,85.902 L130.877,58.058 L195.332,95.271 L171.218,109.193 L171.218,109.193 Z M118.877,44.201 L73.877,70.182 C71.007,71.839 70.024,75.509 71.681,78.378 C73.338,81.247 77.008,82.232 79.877,80.574 L118.877,58.057 L118.877,85.902 L78.738,109.076 L18.365,74.423 L118.877,16.392 L118.877,44.201 L118.877,44.201 Z M84.536,126.241 L113.197,142.692 L84.536,159.239 L84.536,126.241 L84.536,126.241 Z M118.877,153.269 L118.877,185.994 L90.536,169.632 L118.877,153.269 L118.877,153.269 Z M130.877,152.84 L159.673,169.369 L130.877,185.994 L130.877,152.84 L130.877,152.84 Z M130.877,199.85 L171.708,176.276 L195.893,190.158 L130.877,227.695 L130.877,199.85 L130.877,199.85 Z M177.218,165.602 L177.218,140.877 C177.218,137.564 174.531,134.877 171.218,134.877 C167.905,134.877 165.218,137.564 165.218,140.877 L165.218,158.715 L137.25,142.662 L201.332,105.664 L201.332,179.444 L177.218,165.602 L177.218,165.602 Z M207.332,88.343 L130.877,44.202 L130.877,16.392 L231.415,74.438 L207.332,88.343 L207.332,88.343 Z M54.422,190.482 L78.536,176.56 L118.877,199.851 L118.877,227.696 L54.422,190.482 L54.422,190.482 Z M130.877,269.36 L130.877,241.551 L207.928,197.066 L221.89,205.08 C222.832,205.621 223.859,205.877 224.871,205.877 C226.95,205.877 228.972,204.795 230.081,202.863 C231.73,199.989 230.737,196.322 227.864,194.673 L213.332,186.332 L213.332,98.735 L237.415,84.831 L237.415,207.851 L130.877,269.36 L130.877,269.36 Z" id="Shape" fill="#cceaf8"></path></g></svg>
